<?xml version="1.0" encoding="UTF-8" standalone="no"?>
<!DOCTYPE svg PUBLIC "-//W3C//DTD SVG 1.1//EN" "http://www.w3.org/Graphics/SVG/1.1/DTD/svg11.dtd">
<svg width="100%" height="100%" viewBox="0 0 1080 1080" version="1.1" xmlns="http://www.w3.org/2000/svg" xmlns:xlink="http://www.w3.org/1999/xlink" xml:space="preserve" xmlns:serif="http://www.serif.com/" style="fill-rule:evenodd;clip-rule:evenodd;stroke-linejoin:round;stroke-miterlimit:2;">
    <rect id="Yellow-on-Black" serif:id="Yellow on Black" x="0" y="0" width="1080" height="1080" style="fill:none;"/>
    <g id="Yellow-on-Black1" serif:id="Yellow on Black">
        <g transform="matrix(1.591654,0,0,1.591654,-326.441803,-265.728824)">
            <g transform="matrix(1,0,0,1,-1064.626658,-71.272727)">
                <path d="M1811.041,760.765C1811.041,802.614 1777.065,836.589 1735.217,836.589C1693.368,836.589 1659.392,802.614 1659.392,760.765L1659.392,470.443L1632.354,470.443C1590.506,470.443 1556.53,436.468 1556.53,394.619C1556.53,352.77 1590.506,318.794 1632.354,318.794L1735.217,318.794C1777.094,318.794 1811.041,352.742 1811.041,394.619L1811.041,760.765Z" style="fill:rgb(221,217,42);fill-opacity:0.5;"/>
            </g>
            <g transform="matrix(1,0,0,1,-1064.626658,-71.272727)">
                <path d="M1811.041,760.765C1811.041,802.614 1777.065,836.589 1735.217,836.589C1693.368,836.589 1659.392,802.614 1659.392,760.765L1659.392,394.619C1659.392,352.77 1693.368,318.794 1735.217,318.794C1777.065,318.794 1811.041,352.77 1811.041,394.619L1811.041,760.765Z" style="fill:rgb(221,217,42);"/>
            </g>
            <g transform="matrix(1,0,0,0.464694,-1340.626658,139.968999)">
                <path d="M1659.392,760.765L1659.392,394.619C1659.392,304.562 1693.368,231.448 1735.217,231.448C1777.065,231.448 1811.041,304.562 1811.041,394.619L1811.041,597.594L1838.079,597.594C1879.928,597.594 1913.904,670.708 1913.904,760.765C1913.904,850.821 1879.928,923.936 1838.079,923.936L1735.217,923.936C1693.368,923.936 1659.392,850.821 1659.392,760.765Z" style="fill:rgb(221,217,42);"/>
            </g>
        </g>
    </g>
</svg>
